<svg xmlns="http://www.w3.org/2000/svg" viewBox="0 0 544 544">
<style type="text/css">
<![CDATA[
	.st0{fill:#B8B3FF;}
	.st1{fill:#8A9EC4;stroke:#A8BFE5;stroke-width:2;stroke-miterlimit:10;}
	.st2{opacity:0.6;fill:#E9FF6F;stroke:#A8C3FF;stroke-width:4;stroke-miterlimit:10;}
	.st3{opacity:0.6;fill:#E9FFB5;stroke:#A8C3FF;stroke-width:4;stroke-miterlimit:10;}
]]>
</style>
<g id="petals">
	<ellipse class="st3" cx="407" cy="272" rx="135" ry="21"/>
	<ellipse transform="matrix(0.809 -0.5878 0.5878 0.809 -40.4316 260.866)" class="st3" cx="381.2" cy="192.7" rx="135" ry="21"/>
	<ellipse transform="matrix(0.309 -0.9511 0.9511 0.309 80.1921 397.5941)" class="st3" cx="313.7" cy="143.6" rx="135" ry="21"/>
	
		<ellipse transform="matrix(-0.309 -0.9511 0.9511 -0.309 164.8632 406.9989)" class="st3" cx="230.3" cy="143.6" rx="135" ry="21"/>
	
		<ellipse transform="matrix(-0.5878 -0.809 0.809 -0.5878 174.1896 414.3229)" class="st3" cx="192.6" cy="162.8" rx="135" ry="21"/>
	
		<ellipse transform="matrix(-0.809 -0.5878 0.5878 -0.809 181.2391 444.1895)" class="st3" cx="162.8" cy="192.7" rx="135" ry="21"/>
	<path class="st3" d="M15.2,188.6c-3.6,11,51,38.6,121.9,61.7C208,273.3,268.4,283,272,272c3.6-11-51-38.7-121.9-61.7
		C79.2,187.3,18.8,177.5,15.2,188.6z"/>
	<path class="st3" d="M2,272c0,11.6,60.4,21,135,21c74.6,0,135-9.4,135-21c0-11.6-60.4-21-135-21C62.4,251,2,260.4,2,272z"/>
	<path class="st3" d="M15.2,355.4c3.6,11,64,1.3,134.9-21.7C221,310.6,275.6,283,272,272c-3.6-11-64-1.3-134.9,21.7
		C66.2,316.8,11.6,344.4,15.2,355.4z"/>
	<path class="st3" d="M53.6,430.7c6.8,9.4,61.2-18.5,121.6-62.4c60.3-43.8,103.7-87,96.9-96.3c-6.8-9.4-61.2,18.5-121.6,62.4
		C90.1,378.2,46.8,421.3,53.6,430.7z"/>
	<path class="st3" d="M113.3,490.4c9.4,6.8,52.5-36.6,96.3-96.9S281.4,278.8,272,272c-9.4-6.8-52.5,36.5-96.3,96.9
		C131.8,429.2,103.9,483.6,113.3,490.4z"/>
	<path class="st3" d="M188.6,528.8c11,3.6,38.6-51,61.7-121.9C273.3,336,283,275.6,272,272c-11-3.6-38.7,51-61.7,121.9
		C187.3,464.8,177.5,525.2,188.6,528.8z"/>
	<path class="st3" d="M272,542c11.6,0,21-60.4,21-135c0-74.6-9.4-135-21-135c-11.6,0-21,60.4-21,135C251,481.6,260.4,542,272,542z"
		/>
	<path class="st3" d="M355.4,528.8c11-3.6,1.3-64-21.7-134.9C310.6,323,283,268.4,272,272c-11,3.6-1.3,64,21.7,134.9
		C316.8,477.8,344.4,532.4,355.4,528.8z"/>
	<path class="st3" d="M430.7,490.4c9.4-6.8-18.5-61.2-62.4-121.6c-43.8-60.3-87-103.7-96.3-96.9c-9.4,6.8,18.5,61.2,62.4,121.6
		C378.2,453.9,421.3,497.3,430.7,490.4z"/>
	<path class="st3" d="M490.4,430.7c6.8-9.4-36.6-52.5-96.9-96.3C333.2,290.5,278.8,262.6,272,272c-6.8,9.4,36.6,52.5,96.9,96.3
		C429.2,412.2,483.6,440.1,490.4,430.7z"/>
	<path class="st3" d="M528.8,355.4c3.6-11-51-38.6-121.9-61.7C336,270.7,275.6,261,272,272c-3.6,11,51,38.6,121.9,61.7
		C464.8,356.7,525.2,366.5,528.8,355.4z"/>
	<path class="st2" d="M542,272c0-11.6-60.4-21-135-21c-74.6,0-135,9.4-135,21c0,11.6,60.4,21,135,21C481.6,293,542,283.6,542,272z"
		/>
	<path class="st3" d="M528.8,188.6c-3.6-11-64-1.3-134.9,21.7C323,233.4,268.4,261,272,272c3.6,11,64,1.3,134.9-21.7
		C477.8,227.2,532.4,199.6,528.8,188.6z"/>
	<path class="st2" d="M490.4,113.3c-6.8-9.4-61.2,18.5-121.6,62.4c-60.3,43.8-103.7,87-96.9,96.3c6.8,9.4,61.2-18.5,121.6-62.4
		C453.9,165.8,497.3,122.7,490.4,113.3z"/>
	<path class="st3" d="M430.7,53.6c-9.4-6.8-52.5,36.6-96.3,96.9C290.5,210.8,262.6,265.2,272,272c9.4,6.8,52.5-36.6,96.3-96.9
		C412.2,114.8,440.1,60.4,430.7,53.6z"/>
	<path class="st2" d="M355,15.2c-10.9-3.6-38.2,51-61,121.9C271.2,208,261.5,268.4,272.5,272c10.9,3.6,38.2-51,61-121.9
		C356.3,79.2,365.9,18.8,355,15.2z"/>
	<path class="st3" d="M271.6,2.3c-11.5,0-20.6,60.3-20.4,134.8c0.2,74.5,9.7,134.9,21.2,134.9c11.5,0,20.6-60.3,20.4-134.8
		C292.6,62.7,283.1,2.3,271.6,2.3z"/>
	<path class="st2" d="M188.3,15.7c-10.9,3.5-1,63.7,22.3,134.5c23.2,70.8,50.9,125.3,61.9,121.8c10.9-3.5,1-63.7-22.3-134.5
		C226.9,66.8,199.2,12.2,188.3,15.7z"/>
	<path class="st2" d="M53,113.3c-6.9,9.4,36.7,52.5,97.4,96.3c60.6,43.8,115.3,71.7,122.2,62.4c6.9-9.4-36.7-52.5-97.4-96.3
		C114.6,131.8,59.8,103.9,53,113.3z"/>
	<ellipse class="st2" cx="137" cy="272" rx="135" ry="21"/>
	
		<ellipse transform="matrix(-0.809 0.5878 -0.5878 -0.809 500.9961 539.9222)" class="st2" cx="162.8" cy="351.4" rx="135" ry="21"/>
	
		<ellipse transform="matrix(-0.309 0.9511 -0.9511 -0.309 682.2418 305.1114)" class="st2" cx="230.3" cy="400.4" rx="135" ry="21"/>
	<path class="st2" d="M355.4,528.8c11-3.6,1.3-64-21.7-134.9C310.7,323,283,268.4,272,272c-11,3.6-1.3,64,21.7,134.9
		C316.8,477.8,344.4,532.4,355.4,528.8z"/>
	<path class="st2" d="M490.4,430.7c6.8-9.4-36.6-52.5-96.9-96.3C333.2,290.5,278.8,262.6,272,272c-6.8,9.4,36.6,52.5,96.9,96.3
		C429.2,412.2,483.6,440.1,490.4,430.7z"/>
</g>
<g id="center">
	<circle class="st1" cx="272" cy="272" r="34.4"/>
</g>
<g id="center-small">
	<circle class="st0" cx="272" cy="272" r="24.1"/>
	<g>
	</g>
	<g>
	</g>
	<g>
	</g>
	<g>
	</g>
	<g>
	</g>
	<g>
	</g>
	<g>
	</g>
	<g>
	</g>
	<g>
	</g>
	<g>
	</g>
	<g>
	</g>
	<g>
	</g>
	<g>
	</g>
	<g>
	</g>
	<g>
	</g>
</g>
</svg>
